HIERARCHY
ROOT Hips
{
	OFFSET 0.000000 0.000000 0.000000
	CHANNELS 6 Xposition Yposition Zposition Zrotation Yrotation Xrotation 
	JOINT LHipJoint
	{
		OFFSET 0.000000 0.000000 0.000000
		CHANNELS 3 Zrotation Yrotation Xrotation
		JOINT LeftUpLeg
		{
			OFFSET 1.363060 -1.794630 0.839290
			CHANNELS 3 Zrotation Yrotation Xrotation
			JOINT LeftLeg
			{
				OFFSET 2.448110 -6.726130 0.000000
				CHANNELS 3 Zrotation Yrotation Xrotation
				JOINT LeftFoot
				{
					OFFSET 2.562200 -7.039590 0.000000
					CHANNELS 3 Zrotation Yrotation Xrotation
					JOINT LeftToeBase
					{
						OFFSET 0.157640 -0.433110 2.322550
						CHANNELS 3 Zrotation Yrotation Xrotation
						End Site
						{
							OFFSET 0.000000 0.000000 0.000000
						}
					}
				}
			}
		}
	}
	JOINT RHipJoint
	{
		OFFSET 0.000000 0.000000 0.000000
		CHANNELS 3 Zrotation Yrotation Xrotation
		JOINT RightUpLeg
		{
			OFFSET -1.305520 -1.794630 0.839290
			CHANNELS 3 Zrotation Yrotation Xrotation
			JOINT RightLeg
			{
				OFFSET -2.542530 -6.985550 0.000000
				CHANNELS 3 Zrotation Yrotation Xrotation
				JOINT RightFoot
				{
					OFFSET -2.568260 -7.056230 0.000000
					CHANNELS 3 Zrotation Yrotation Xrotation
					JOINT RightToeBase
					{
						OFFSET -0.164730 -0.452590 2.363150
						CHANNELS 3 Zrotation Yrotation Xrotation
						End Site
						{
							OFFSET 0.000000 0.000000 0.000000
						}
					}
				}
			}
		}
	}
	JOINT LowerBack
	{
		OFFSET 0.000000 0.000000 0.000000
		CHANNELS 3 Zrotation Yrotation Xrotation
		JOINT Spine
		{
			OFFSET 0.028270 2.035590 -0.193380
			CHANNELS 3 Zrotation Yrotation Xrotation
			JOINT Spine1
			{
				OFFSET 0.056720 2.048850 -0.042750
				CHANNELS 3 Zrotation Yrotation Xrotation
				JOINT Neck
				{
					OFFSET 0.000000 0.000000 0.000000
					CHANNELS 3 Zrotation Yrotation Xrotation
					JOINT Neck1
					{
						OFFSET -0.054170 1.746240 0.172020
						CHANNELS 3 Zrotation Yrotation Xrotation
						JOINT Head
						{
							OFFSET 0.104070 1.761360 -0.123970
							CHANNELS 3 Zrotation Yrotation Xrotation
							End Site
							{
								OFFSET 0.000000 0.000000 0.000000
							}
						}
					}
				}
				JOINT LeftShoulder
				{
					OFFSET 0.000000 0.000000 0.000000
					CHANNELS 3 Zrotation Yrotation Xrotation
					JOINT LeftArm
					{
						OFFSET 3.362410 1.200890 -0.311210
						CHANNELS 3 Zrotation Yrotation Xrotation
						JOINT LeftForeArm
						{
							OFFSET 4.983000 -0.000000 -0.000000
							CHANNELS 3 Zrotation Yrotation Xrotation
							JOINT LeftHand
							{
								OFFSET 3.483560 -0.000000 -0.000000
								CHANNELS 3 Zrotation Yrotation Xrotation
								JOINT LeftFingerBase
								{
									OFFSET 0.000000 0.000000 0.000000
									CHANNELS 3 Zrotation Yrotation Xrotation
									JOINT LeftHandIndex1
									{
										OFFSET 0.715260 -0.000000 -0.000000
										CHANNELS 3 Zrotation Yrotation Xrotation
										End Site
										{
											OFFSET 0.000000 0.000000 0.000000
										}
									}
								}
								JOINT LThumb
								{
									OFFSET 0.000000 0.000000 0.000000
									CHANNELS 3 Zrotation Yrotation Xrotation
									End Site
									{
										OFFSET 0.000000 0.000000 0.000000
									}
								}
							}
						}
					}
				}
				JOINT RightShoulder
				{
					OFFSET 0.000000 0.000000 0.000000
					CHANNELS 3 Zrotation Yrotation Xrotation
					JOINT RightArm
					{
						OFFSET -3.136600 1.374050 -0.404650
						CHANNELS 3 Zrotation Yrotation Xrotation
						JOINT RightForeArm
						{
							OFFSET -5.241900 -0.000000 -0.000000
							CHANNELS 3 Zrotation Yrotation Xrotation
							JOINT RightHand
							{
								OFFSET -3.444170 -0.000000 -0.000000
								CHANNELS 3 Zrotation Yrotation Xrotation
								JOINT RightFingerBase
								{
									OFFSET 0.000000 0.000000 0.000000
									CHANNELS 3 Zrotation Yrotation Xrotation
									JOINT RightHandIndex1
									{
										OFFSET -0.622530 -0.000000 -0.000000
										CHANNELS 3 Zrotation Yrotation Xrotation
										End Site
										{
											OFFSET 0.000000 0.000000 0.000000
										}
									}
								}
								JOINT RThumb
								{
									OFFSET 0.000000 0.000000 0.000000
									CHANNELS 3 Zrotation Yrotation Xrotation
									End Site
									{
										OFFSET 0.000000 0.000000 0.000000
									}
								}
							}
						}
					}
				}
			}
		}
	}
}
MOTION
Frames: 6
Frame Time: 0.008333
10.870074 15.235863 1.984794 -165.618815 -81.273474 -147.366319 -8.294271 -1.184978 3.638920 -9.957372 -6.063745 -92.730809 -3.100712 3.690961 38.174946 1.019916 3.959683 -0.187176 1.495800 0.000000 -33.242000 10.495215 0.514743 -3.430733 10.470989 -6.169587 -54.087125 1.522302 -5.291499 62.205549 -1.331125 -2.536514 -18.772486 0.721200 -0.000000 -88.172800 -4.747367 0.218346 3.296554 -1.522201 0.446221 -2.324219 -3.528419 0.374321 -0.296585 6.242269 -5.853028 -10.206364 -0.784970 0.025061 -1.358322 0.000000 0.000000 0.000000 -1.669205 14.819536 4.967401 -66.037753 22.893296 18.044225 -1.918443 -57.913171 -0.001550 -10.016545 14.633168 -1.295909 0.021913 -0.040838 0.000000 0.000000 0.000000 0.000000 0.000000 0.000000 0.000000 0.983779 0.668492 1.118027 55.630287 17.566422 8.657248 0.118564 85.567756 -0.026985 -4.743365 5.152044 -0.238484 0.119295 -0.475258 0.000000 0.000000 0.000000 0.000000 0.000000 0.000000 0.000000 
10.714157 15.211063 2.009783 -166.866091 -81.463029 -146.300296 -8.226548 -1.187872 3.485401 -10.274191 -6.379315 -92.917372 -2.889936 3.915952 40.357622 1.066052 4.027917 -0.816044 1.419200 0.000000 -31.470600 10.650812 0.591625 -3.503882 9.935289 -6.822743 -54.565830 1.189347 -5.506124 63.982649 -1.188966 -2.544169 -16.467438 0.515500 -0.000000 -90.128900 -5.003023 0.119990 3.480978 -1.597736 0.354490 -2.295102 -3.613907 0.284550 -0.372145 6.418014 -5.852464 -10.202001 -0.813785 0.023189 -1.362667 0.000000 0.000000 0.000000 -1.852313 14.468807 4.986901 -65.874455 22.133649 18.204469 -1.939744 -57.821080 -0.001063 -10.166007 14.726292 -1.323607 0.022713 -0.038845 0.000000 0.000000 0.000000 0.000000 0.000000 0.000000 0.000000 1.236219 0.643330 1.135709 56.384673 16.856147 8.737138 0.130068 85.255198 -0.027203 -4.784033 5.297298 -0.246683 0.117781 -0.475915 0.000000 0.000000 0.000000 0.000000 0.000000 0.000000 0.000000 
10.560727 15.188533 2.034410 -168.131815 -81.672584 -145.188974 -8.151520 -1.187404 3.336018 -10.629354 -6.710043 -93.015413 -2.713182 4.099155 42.360070 1.128959 4.102666 -1.771396 1.312401 -0.000000 -29.911200 10.794223 0.680912 -3.563735 9.401049 -7.398849 -55.095899 0.839405 -5.707730 65.751846 -1.081185 -2.628828 -14.027627 0.325700 0.000000 -91.412201 -5.222422 0.026413 3.660975 -1.665199 0.266197 -2.265653 -3.699873 0.198144 -0.442809 6.555713 -5.851012 -10.179260 -0.845981 0.020692 -1.361479 0.000000 0.000000 0.000000 -2.051046 14.085393 5.000587 -65.662956 21.251913 18.390921 -1.963792 -57.699716 -0.000634 -10.287947 14.819022 -1.347897 0.022929 -0.036527 0.000000 0.000000 0.000000 0.000000 0.000000 0.000000 0.000000 1.473413 0.609282 1.150559 57.178636 16.152058 8.792342 0.144760 84.842911 -0.027457 -4.827966 5.435502 -0.254786 0.115902 -0.475920 0.000000 0.000000 0.000000 0.000000 0.000000 0.000000 0.000000 
10.409906 15.168278 2.058691 -169.380326 -81.891723 -144.071028 -8.073468 -1.183674 3.191281 -11.007966 -7.041980 -93.028457 -2.567416 4.246720 44.184392 1.206775 4.186686 -2.979972 1.179900 0.000000 -28.582600 10.922219 0.781151 -3.608831 8.879618 -7.888889 -55.660723 0.484370 -5.892451 67.494557 -1.013300 -2.792454 -11.551028 0.152600 -0.000000 -91.848500 -5.402356 -0.062481 3.832710 -1.723491 0.181277 -2.237252 -3.786024 0.114971 -0.509289 6.652225 -5.835298 -10.135467 -0.882523 0.017422 -1.353707 0.000000 0.000000 0.000000 -2.270068 13.673267 5.008256 -65.408788 20.269212 18.567817 -1.989620 -57.561203 -0.000279 -10.369864 14.905910 -1.366387 0.022459 -0.033835 0.000000 0.000000 0.000000 0.000000 0.000000 0.000000 0.000000 1.693728 0.579976 1.162508 58.008482 15.457016 8.822615 0.162417 84.325163 -0.027691 -4.866819 5.562883 -0.262193 0.113506 -0.475143 0.000000 0.000000 0.000000 0.000000 0.000000 0.000000 0.000000 
10.261690 15.150264 2.082975 -170.504145 -82.109130 -143.051049 -7.999489 -1.179179 3.053650 -11.382261 -7.354949 -92.974099 -2.447223 4.365294 45.838258 1.296099 4.277646 -4.354471 1.026900 -0.000000 -27.492500 11.029546 0.888181 -3.637693 8.394213 -8.276783 -56.250407 0.135745 -6.056691 69.195629 -0.987960 -3.042718 -9.145927 -0.005900 -0.000001 -91.349900 -5.535165 -0.143348 3.989969 -1.770540 0.102915 -2.210342 -3.871048 0.038160 -0.566887 6.706655 -5.809331 -10.074608 -0.923165 0.013459 -1.340346 0.000000 0.000000 0.000000 -2.504547 13.255772 5.009269 -65.123915 19.174983 18.721228 -2.017117 -57.393808 -0.000025 -10.393435 14.978653 -1.375771 0.021126 -0.030663 0.000000 0.000000 0.000000 0.000000 0.000000 0.000000 0.000000 1.897321 0.552238 1.171539 58.863562 14.790550 8.833930 0.182951 83.693714 -0.027857 -4.894905 5.677339 -0.268502 0.110585 -0.473488 0.000000 0.000000 0.000000 0.000000 0.000000 0.000000 0.000000 
10.116102 15.134508 2.107353 -171.433021 -82.316695 -142.198377 -7.934969 -1.175892 2.924888 -11.732699 -7.634865 -92.869254 -2.347077 4.460873 47.329912 1.392246 4.371870 -5.801106 0.860401 -0.000000 -26.644300 11.113413 0.998099 -3.650393 7.961962 -8.557457 -56.861899 -0.196670 -6.200159 70.846915 -1.003651 -3.386196 -6.924979 -0.155200 0.000000 -89.939300 -5.619143 -0.215067 4.128481 -1.805625 0.032277 -2.185624 -3.953834 -0.031166 -0.613953 6.720164 -5.771019 -9.999222 -0.967820 0.008851 -1.322067 0.000000 0.000000 0.000000 -2.750924 12.847087 5.003612 -64.819640 17.972318 18.826985 -2.045644 -57.195518 0.000099 -10.340994 15.032821 -1.373051 0.018785 -0.026936 0.000000 0.000000 0.000000 0.000000 0.000000 0.000000 0.000000 2.084937 0.529137 1.178213 59.736180 14.162461 8.827584 0.206057 82.944394 -0.027900 -4.905560 5.778496 -0.273215 0.107105 -0.470922 0.000000 0.000000 0.000000 0.000000 0.000000 0.000000 0.000000 
